PathFileType	4	(X/Y/Z)	10_2_47_p0_0-301.trc
DataRate	CameraRate	NumFrames	NumMarkers	Units	OrigDataRate	OrigDataStartFrame	OrigNumFrames
59.0	59.0	5	27	m	59.0	226	302
Frame#	Time	RHip			RKnee			RAnkle			RBigToe			RSmallToe			RHeel			LHip			LKnee			LAnkle			LBigToe			LSmallToe			LHeel			Neck			Head			Nose			RShoulder			RElbow			RWrist			RThumb			RIndex			RPinky			LShoulder			LElbow			LWrist			LThumb			LIndex			LPinky			
		X1	Y1	Z1	X2	Y2	Z2	X3	Y3	Z3	X4	Y4	Z4	X5	Y5	Z5	X6	Y6	Z6	X7	Y7	Z7	X8	Y8	Z8	X9	Y9	Z9	X10	Y10	Z10	X11	Y11	Z11	X12	Y12	Z12	X13	Y13	Z13	X14	Y14	Z14	X15	Y15	Z15	X16	Y16	Z16	X17	Y17	Z17	X18	Y18	Z18	X19	Y19	Z19	X20	Y20	Z20	X21	Y21	Z21	X22	Y22	Z22	X23	Y23	Z23	X24	Y24	Z24	X25	Y25	Z25	X26	Y26	Z26	X27	Y27	Z27	
226	3.830508474576271	0.28375195576796336	0.6330620348207003	0.9768604754135525	0.2771414145056082	0.5997005024748197	1.3816539688191356	0.3079139679211265	0.8008716445880296	1.8242334794492576	0.2773013776528549	0.6076276172697279	1.859582507110735	0.3254753089489021	0.6411676855648012	1.8563234459710867	0.283659989152674	0.9101086343837308	1.900197253008849	0.06365583708796779	0.5941231994978812	0.9911677863873521	0.07706998172578507	0.600298787930565	1.3886362401686094	0.07819504428212454	0.7613726903807693	1.8050373268108948	0.13063026545725423	0.5702749619761008	1.8446880112278565	0.07003412401834751	0.6063863443293567	1.8360173432313336	0.08845618439163422	0.8756817885689259	1.8621794540189038	0.1669071728420099	0.40101148524428815	0.6476939813962506	0.2569947533866397	-0.036748963230918814	0.5309446329493874	0.14848625674203672	0.22592554009344357	0.6760012530133103	0.328871527659539	0.34124425938268976	0.6079093588673552	0.44232138426358647	0.4275671943414948	0.8517453973511495	0.263902315720836	0.379895319531487	0.7824744846216404	0.19352713615196498	0.3264311399951106	0.6957012920257719	0.1542820506228601	0.3590199594250674	0.7080547808579637	0.14766998764953354	0.40334498490226195	0.7738960668464632	0.016662925289610202	0.31400561117408426	0.6505326781223946	-0.001168095632629264	0.4009965570398484	0.9021533397545853	0.18784645042391726	0.33942888746861316	0.8069089364514593	0.19405245739961957	0.2128937543963617	0.7275228817663558	0.20847938285481904	0.18960385410886776	0.7287392054886183	0.2239258088021143	0.39384942684704327	0.8012204421275517
227	3.847457627118644	0.2892056563929692	0.6173195044829677	0.9790315609387648	0.2770977052629295	0.5993891279955779	1.381502034343336	0.3079381005332383	0.800805183445707	1.8242442991993864	0.2773443672769632	0.6076491143716064	1.8596483463378668	0.3254099147646033	0.6413902789972915	1.8562824369801625	0.28367262886109257	0.9103761341332723	1.9003906004681468	0.06482201662935062	0.5922768246150634	0.9912146141741864	0.07704869802120104	0.6002935878507814	1.3887086775522912	0.0781862690666803	0.7613878224057017	1.8050817679610958	0.12836878975870708	0.556415087494792	1.8396034446466456	0.06998652077871045	0.6063638540354267	1.8360344241546138	0.08840611069595349	0.8756027132027693	1.8621707740531546	0.15871116726355106	0.3749965726265308	0.6420415559367404	0.24765068404394056	-0.032612040381693956	0.5110782091784272	0.13952115579070778	0.2153647038768081	0.6542618204517264	0.3288683519841658	0.34127930957095814	0.6108487756140235	0.44548734981398747	0.4376706537622756	0.8519982099950365	0.26832723134962216	0.38236632832805195	0.7860780554059603	0.20058619971431008	0.3050278385004089	0.6988073309793794	0.1505886430237102	0.36264822105717154	0.7099821067592713	0.15134763064046927	0.4094248653294962	0.7705436167595628	0.022029697882250884	0.329242436916782	0.6467799865399056	-0.0017891473485987647	0.40297732193336394	0.9028521251535958	0.18440865557644248	0.33426815636013996	0.8111700426247785	0.19132183238776693	0.27853951525675186	0.730975051387697	0.1955825214957372	0.2677076762211171	0.7338626284681876	0.22800771725082425	0.36305811742678396	0.7992379252856758
228	3.864406779661017	0.2898349429169736	0.6165919414522723	0.9753601430076865	0.276337112066891	0.5966105165281383	1.376989998744103	0.30895542679964916	0.7990458029970178	1.819259573152148	0.27743748980814886	0.6075946059806702	1.8593170353027273	0.33035452995116005	0.6263069531261254	1.8499664357834653	0.2836785715291619	0.9107988171705674	1.9003995774290303	0.06425155576036314	0.5935892047323441	0.9946074531542937	0.07705843902821317	0.6002781124417826	1.3882945562838118	0.07818945638364175	0.7614903511827248	1.8051410852559588	0.1307914190542761	0.5704847852833054	1.844589917858353	0.07004015040002405	0.6063793092290429	1.8360274338907707	0.08720435287431767	0.8769603680068041	1.8676120377350975	0.17024263710787382	0.4295519140781789	0.6590909823816472	0.2381683138954449	-0.02669325615864155	0.52641491857579	0.14414691831046234	0.24303552220390465	0.6852156835875934	0.3288562522790311	0.3421484656310027	0.6109672437345963	0.4413802004932181	0.43433377004400797	0.8516396243110356	0.2730109724839026	0.38083494007877106	0.7855450687656147	0.19757050814423896	0.34325551928907	0.7088039086073266	0.15100927877574993	0.3623720261394486	0.7187313620676674	0.15127733883417604	0.3950990147511945	0.7776900870013276	0.022002875306719225	0.3286354415703423	0.6464000873432103	0.0041115048553815	0.39072953569994245	0.8993512349752252	0.18792530114312064	0.344904830187358	0.8150655246300788	0.2014826306471911	0.310195733701866	0.7427934668029408	0.19902304490222528	0.2484750382914202	0.7328218526028454	0.21463401221896225	0.4489284917128138	0.8191209544606206
229	3.8813559322033897	0.289950468523736	0.61631735407175	0.9756851123687655	0.2770517837932386	0.5989534428854979	1.3812876021802896	0.3141621436580024	0.7820435584140356	1.8128431969823624	0.2774789326519218	0.6076987081252261	1.8594473605863127	0.33054168993139915	0.6260512647874936	1.8500773000244788	0.2837492957157453	0.9106835105425269	1.9004185682365051	0.06820081883550724	0.5951391681728587	0.9948568890804966	0.07890392639636684	0.6137461990715664	1.3916028796818731	0.07706420378270887	0.7627122715336325	1.8100285288948268	0.1308562380682118	0.5703606714549853	1.84452692896038	0.07022082416592779	0.6060619383374015	1.8359168022286387	0.08716015721119569	0.8768306399928313	1.8676379137413321	0.17977395286308256	0.4161923756282909	0.6558357532035587	0.23778561465116932	-0.0271348737663839	0.525964350873539	0.14036767474827996	0.22886789578990938	0.6843764921268222	0.32936590102826824	0.34101051618410777	0.6153123261136584	0.43743596954583186	0.42180663456240663	0.8489441376059432	0.2731093167181075	0.381694073945118	0.7857151921853929	0.19475930891606977	0.3247663391191795	0.7005920935395392	0.1485280360872783	0.3338632671063088	0.7120690337474489	0.1514968013308102	0.39577706697781134	0.770303825865706	0.022058103626275017	0.3287584614709334	0.6462290907972408	-0.001120314209381604	0.4013744285569348	0.90239631528319	0.18232790561720916	0.3608800039533926	0.8205970400823845	0.20174455880261088	0.3222753158693143	0.7397587747751667	0.20923566379029282	0.3933532400182791	0.7605641308036809	0.2201418578099925	0.48334922223338384	0.8434601857931165
230	3.8983050847457625	0.2895666713254673	0.6176548605669558	0.9792331609674156	0.27706620347641564	0.5990718585071674	1.381266060647574	0.30899782686190164	0.7989474569524594	1.8194253117027182	0.2775258346387313	0.6078397220815527	1.8597812761529873	0.33062328232735116	0.6264586888314402	1.850420881747077	0.28359664733150214	0.9106367217047714	1.9003248825470846	0.06894211140021259	0.5939466510413149	0.9909232326143956	0.07898131229313475	0.6136521795215667	1.3913672514443638	0.0777230899838627	0.7626700270136613	1.8015456668001564	0.13070079683666336	0.5704591822743303	1.8446821545469285	0.07007190585557217	0.6067364589799029	1.8363613771234215	0.09182840027594645	0.8803751668748226	1.859377867667731	0.1706224376442306	0.4108260946561854	0.6591689969577936	0.24164524706132948	-0.026381990494441246	0.5222517382013512	0.14242510099849004	0.2384201173420826	0.6779678672176551	0.332531018029288	0.33084309755663327	0.6137403391855443	0.44137881835262555	0.43451051438596533	0.8516776257374634	0.2769089018631227	0.38020761607284936	0.7846716386002773	0.20602192289229995	0.28895312735001066	0.6909864698308883	0.1516283177698995	0.3363470781509705	0.7016465774122751	0.14938871357359776	0.3849321038291603	0.7684888746275953	0.022057831184638152	0.3282191440745514	0.646659255081578	-0.0013125254105769276	0.4012159020686857	0.9026212243624093	0.1871579692851972	0.34771241873022596	0.8173451546769435	0.19352238876115618	0.30853519793038536	0.7355286489299079	0.21846778533016117	0.4147664111907456	0.7635147957472384	0.22909607400755877	0.4275565402746153	0.8274369602073117
